<?xml version="1.0" standalone="no"?>
<!DOCTYPE svg PUBLIC "-//W3C//DTD SVG 20010904//EN"
 "http://www.w3.org/TR/2001/REC-SVG-20010904/DTD/svg10.dtd">
<svg version="1.0" xmlns="http://www.w3.org/2000/svg"
 width="3677.000000pt" height="3677.000000pt" viewBox="0 0 3677.000000 3677.000000"
 preserveAspectRatio="xMidYMid meet">
<metadata>
Created by potrace 1.11, written by Peter Selinger 2001-2013
</metadata>
<g transform="translate(0.000000,3677.000000) scale(0.100000,-0.100000)"
fill="#000000" stroke="none">
<path d="M15727 25824 c-1 -1 -44 -4 -96 -8 -371 -26 -783 -183 -1096 -416
-126 -95 -147 -112 -258 -224 -299 -301 -519 -712 -592 -1111 -4 -22 -9 -49
-11 -60 -23 -126 -28 -270 -28 -873 l-1 -602 -753 2 -754 3 -23 90 c-149 575
-569 1044 -1115 1248 -107 39 -225 74 -285 82 -22 3 -46 8 -53 10 -34 12 -161
20 -307 20 -172 0 -268 -8 -365 -31 -14 -3 -38 -8 -55 -11 -16 -3 -82 -22
-146 -43 -592 -193 -1043 -678 -1199 -1290 -10 -41 -22 -93 -24 -115 -3 -22
-8 -49 -10 -60 -10 -49 -18 -188 -16 -280 1 -55 2 -107 2 -115 0 -35 31 -230
44 -285 8 -33 17 -68 19 -78 20 -87 121 -322 184 -427 156 -261 404 -507 658
-651 224 -128 490 -212 738 -235 53 -5 319 -5 345 0 14 2 50 7 81 11 98 10
373 82 404 105 6 4 21 11 35 15 47 14 205 97 290 152 286 186 511 442 655 746
46 99 109 264 118 315 2 9 7 33 11 53 l8 37 756 -2 757 -1 1 -660 c1 -363 4
-669 7 -680 3 -11 8 -49 12 -85 4 -36 9 -68 10 -71 2 -3 7 -28 11 -55 9 -71
68 -269 115 -387 144 -361 398 -695 704 -926 22 -16 51 -38 65 -49 60 -46 197
-125 311 -181 235 -114 473 -181 744 -209 95 -10 6151 -9 6241 1 39 4 82 10
95 12 13 3 44 8 69 11 25 3 95 19 155 34 534 138 962 440 1288 912 26 38 47
70 47 73 0 2 18 34 40 70 22 36 40 69 40 73 0 4 8 23 19 42 20 39 68 154 100
242 44 122 88 325 107 488 4 36 8 353 8 705 l1 640 754 0 754 0 19 -75 c32
-123 67 -218 124 -338 49 -102 143 -259 176 -293 7 -8 26 -32 42 -54 83 -113
269 -282 419 -381 198 -131 485 -247 670 -270 23 -3 49 -7 56 -10 52 -17 324
-24 461 -11 70 6 97 10 160 22 14 3 34 7 45 9 61 12 221 62 295 93 233 96 418
219 595 397 123 123 138 141 218 258 181 264 286 552 314 863 9 100 8 272 -1
345 -14 114 -15 118 -36 230 -16 84 -83 276 -134 381 -40 84 -148 266 -165
279 -3 3 -26 32 -51 65 -100 135 -285 301 -455 410 -133 85 -397 199 -509 221
-11 2 -52 11 -91 19 -125 27 -228 38 -360 39 -79 0 -256 -12 -277 -19 -7 -2
-30 -6 -50 -9 -85 -13 -232 -51 -313 -83 -69 -27 -79 -31 -140 -59 -349 -161
-664 -461 -844 -807 -57 -107 -130 -298 -146 -376 -2 -9 -9 -37 -15 -63 l-12
-48 -752 0 -751 0 -1 608 c0 550 -4 728 -18 802 -3 14 -10 55 -16 92 -39 249
-166 569 -318 799 -75 115 -72 110 -158 214 -179 216 -430 415 -689 547 -145
74 -403 166 -515 184 -14 3 -47 9 -75 14 -56 11 -86 15 -165 26 -42 6 -6146
13 -6153 8z"/>
<path d="M12423 15130 c-86 -22 -114 -36 -181 -89 -96 -76 -148 -184 -151
-314 -3 -174 86 -319 243 -390 39 -17 138 -45 166 -45 165 -4 219 4 308 46
117 55 209 174 231 297 39 217 -74 412 -284 486 -86 30 -236 34 -332 9z"/>
<path d="M25054 15135 c-160 -37 -287 -150 -331 -293 -13 -42 -19 -173 -10
-212 26 -115 100 -215 201 -275 143 -83 373 -87 529 -8 100 50 195 175 212
278 9 60 7 144 -5 200 -52 231 -323 372 -596 310z"/>
<path d="M10910 14990 c-71 -20 -143 -81 -176 -147 -18 -35 -19 -67 -19 -433
0 -347 3 -455 20 -637 2 -24 2 -43 -2 -43 -3 0 -33 22 -67 49 -68 55 -209 141
-229 141 -7 0 -17 4 -23 9 -8 8 -105 35 -168 47 -33 6 -228 6 -271 -1 -259
-40 -522 -206 -696 -439 -112 -150 -223 -415 -253 -606 -3 -19 -8 -46 -11 -60
-24 -120 -25 -492 0 -619 2 -11 7 -41 10 -68 25 -168 99 -375 188 -523 127
-213 355 -389 575 -445 359 -92 656 -21 944 227 l68 59 15 -38 c41 -103 89
-161 165 -197 40 -19 62 -21 215 -21 168 0 171 0 218 28 60 36 82 59 114 124
l25 53 0 1668 0 1668 -22 52 c-12 28 -40 68 -62 88 -71 64 -89 68 -323 70
-115 1 -221 -2 -235 -6z m-413 -1722 c73 -26 163 -79 196 -115 16 -19 17 -54
15 -551 l-3 -530 -41 -48 c-84 -99 -197 -154 -329 -159 -316 -13 -478 229
-478 715 -1 281 52 462 172 593 90 97 158 125 296 122 78 -1 116 -7 172 -27z"/>
<path d="M27939 14984 c-63 -19 -131 -81 -159 -146 -23 -52 -24 -59 -23 -403
0 -192 3 -386 6 -430 16 -209 19 -275 10 -275 -5 0 -22 13 -39 28 -108 104
-291 193 -445 216 -64 10 -222 8 -289 -3 -313 -51 -625 -294 -785 -611 -36
-72 -98 -229 -110 -280 -14 -56 -45 -202 -50 -235 -11 -67 -14 -445 -4 -535
54 -481 268 -849 594 -1022 192 -102 445 -137 669 -93 144 29 342 137 481 263
26 24 51 40 55 35 4 -4 15 -31 24 -59 21 -66 70 -122 137 -159 52 -29 59 -30
207 -33 127 -3 161 -1 202 14 58 21 120 77 152 137 l23 42 0 1685 0 1685 -23
43 c-31 59 -87 109 -147 131 -43 17 -78 19 -245 19 -137 0 -209 -4 -241 -14z
m-446 -1703 c90 -24 182 -70 229 -115 l33 -32 -1 -520 c-1 -285 -2 -524 -3
-531 -2 -21 -110 -131 -154 -156 -67 -40 -136 -59 -220 -62 -267 -10 -422 161
-465 515 -14 116 -6 428 12 481 3 8 7 25 10 39 7 44 53 157 83 201 109 170
273 232 476 180z"/>
<path d="M4798 14785 c-2 -1 -30 -5 -63 -9 -223 -23 -459 -103 -660 -225 -33
-20 -69 -44 -79 -53 -11 -10 -23 -18 -28 -18 -11 0 -134 -104 -199 -169 -149
-150 -247 -301 -354 -544 -66 -151 -117 -367 -141 -602 -12 -117 -6 -436 10
-521 2 -10 7 -44 11 -74 12 -93 58 -282 85 -345 4 -11 18 -47 31 -80 116 -309
334 -572 619 -748 166 -102 346 -169 570 -212 158 -30 494 -27 640 6 25 6 55
13 67 15 37 7 194 64 253 92 53 25 164 87 185 104 6 4 37 28 71 53 103 75 135
137 130 253 -3 74 -32 143 -83 197 -15 17 -43 50 -61 73 -70 88 -174 123 -288
97 -28 -6 -92 -35 -142 -65 -92 -52 -200 -98 -257 -107 -16 -3 -48 -8 -70 -12
-47 -9 -171 -7 -235 3 -100 16 -199 53 -275 104 -47 31 -160 142 -196 192
-101 139 -164 322 -194 555 -12 92 -13 410 -2 460 3 11 10 54 17 95 23 137 92
310 170 425 101 148 292 290 430 320 8 2 35 8 60 14 64 15 243 7 324 -14 38
-10 117 -43 175 -74 105 -55 107 -55 196 -55 80 -1 95 2 136 26 26 15 71 55
100 90 30 34 64 73 76 85 84 92 88 275 7 360 -28 29 -178 123 -264 165 -103
50 -251 103 -315 113 -22 3 -47 7 -55 10 -46 13 -91 17 -237 20 -89 2 -163 2
-165 0z"/>
<path d="M19695 14728 c-81 -30 -148 -100 -175 -182 -10 -31 -12 -358 -12
-1558 0 -1711 -6 -1577 77 -1662 84 -86 32 -81 795 -81 371 0 699 3 729 8 333
46 532 116 711 248 198 145 318 336 365 579 15 76 15 323 0 400 -11 59 -53
175 -81 226 -58 106 -182 235 -279 291 -75 43 -210 100 -227 95 -5 -1 -8 4 -8
12 0 7 25 26 56 42 82 41 186 142 244 237 49 79 104 199 114 247 3 14 8 36 11
50 21 93 25 228 10 340 -8 63 -51 208 -69 230 -6 8 -19 31 -29 51 -32 62 -135
166 -220 223 -67 44 -232 121 -281 130 -6 2 -31 8 -56 15 -47 14 -64 18 -115
26 -16 3 -37 8 -45 10 -8 2 -42 7 -75 11 -33 3 -69 9 -80 12 -42 11 -1329 12
-1360 0z m1215 -648 c203 -42 294 -135 304 -310 10 -193 -88 -330 -274 -384
-30 -9 -73 -19 -95 -22 -61 -10 -458 -12 -477 -2 -17 8 -18 35 -18 361 0 268
3 356 12 365 21 21 440 14 548 -8z m-3 -1354 c237 -19 379 -90 441 -224 25
-52 27 -68 27 -172 -1 -149 -23 -210 -104 -290 -81 -81 -196 -129 -346 -146
-91 -10 -538 -12 -557 -2 -17 8 -18 38 -18 411 0 221 4 407 8 413 4 7 18 14
32 15 42 6 422 2 517 -5z"/>
<path d="M7390 13983 c-332 -15 -665 -164 -891 -400 -175 -182 -277 -393 -345
-708 -19 -92 -26 -424 -10 -535 30 -212 115 -441 224 -604 184 -276 528 -493
857 -541 117 -17 149 -20 220 -19 79 1 176 9 225 19 14 3 37 7 52 10 52 10
190 56 255 86 342 159 574 417 692 774 22 66 43 140 46 165 4 24 8 47 10 50
10 16 20 164 20 295 0 182 -8 254 -41 393 -98 406 -327 699 -691 881 -82 41
-230 94 -294 105 -19 3 -45 8 -59 11 -14 3 -61 8 -105 11 -44 3 -87 6 -95 7
-8 1 -40 1 -70 0z m149 -687 c103 -20 206 -107 260 -219 37 -77 75 -221 85
-317 8 -72 9 -321 2 -360 -3 -14 -7 -42 -10 -62 -25 -168 -80 -293 -164 -377
-79 -80 -144 -104 -274 -104 -93 0 -102 2 -172 37 -80 39 -126 84 -176 171
-30 53 -75 192 -85 262 -3 23 -8 57 -11 75 -6 43 -5 313 2 358 22 157 61 283
111 363 27 43 111 127 127 127 5 0 17 6 25 14 37 32 188 49 280 32z"/>
<path d="M15127 13984 c-1 -1 -26 -5 -55 -8 -162 -19 -324 -80 -476 -180 -80
-52 -223 -168 -239 -193 -4 -7 -17 -13 -27 -13 -15 0 -20 7 -20 28 0 29 -22
97 -45 142 -22 42 -83 99 -139 128 -49 25 -58 27 -201 27 -136 0 -154 -2 -196
-23 -57 -28 -104 -78 -131 -140 -21 -46 -21 -56 -21 -1152 0 -608 3 -1125 7
-1150 9 -58 65 -135 130 -175 l49 -30 214 -3 c208 -3 214 -3 266 21 78 36 148
117 161 189 3 13 5 371 5 795 l1 773 33 33 c52 55 168 138 232 168 113 53 244
57 346 11 92 -41 137 -127 155 -290 3 -35 7 -386 8 -780 l1 -717 23 -47 c31
-62 75 -105 139 -135 51 -24 57 -24 265 -21 242 3 268 10 340 91 73 80 71 55
71 866 0 665 -5 907 -19 987 -37 211 -81 340 -156 463 -98 160 -248 268 -433
312 -40 9 -281 28 -288 23z"/>
<path d="M24157 13984 c-1 -1 -38 -4 -82 -8 -256 -19 -494 -195 -679 -499 -29
-47 -34 -33 -52 138 -13 116 -59 197 -145 254 -66 43 -120 54 -256 50 -140 -5
-191 -25 -254 -99 -68 -81 -66 -30 -64 -1265 2 -1244 -4 -1143 76 -1230 69
-75 115 -86 349 -85 184 1 201 3 246 25 62 29 111 77 138 135 21 44 21 58 22
683 1 351 5 657 8 680 8 51 70 168 131 247 114 149 262 227 441 235 114 5 165
18 224 58 85 59 109 103 140 262 30 151 28 221 -9 294 -23 44 -67 90 -101 104
-22 9 -127 26 -133 21z"/>
<path d="M32917 13984 c-1 -1 -29 -5 -62 -9 -114 -14 -144 -21 -235 -51 -269
-90 -500 -266 -657 -499 -37 -55 -126 -216 -123 -223 1 -1 -12 -37 -28 -80
-62 -160 -89 -329 -90 -547 -1 -454 130 -788 410 -1050 280 -262 671 -383
1106 -342 225 21 560 134 638 214 41 42 73 138 69 205 -5 87 -75 199 -155 250
-69 43 -201 46 -314 8 -150 -51 -360 -56 -521 -15 -89 24 -193 83 -256 147
-51 52 -70 82 -140 230 -17 34 -22 95 -9 103 7 5 315 9 684 9 l671 1 55 26
c74 34 124 79 151 136 20 40 23 63 23 172 1 305 -43 519 -149 734 -113 227
-282 393 -495 486 -41 18 -83 35 -94 37 -10 2 -33 8 -50 14 -53 17 -188 37
-266 39 -41 1 -95 3 -118 4 -24 1 -44 1 -45 1z m158 -648 c145 -12 238 -78
300 -211 37 -80 63 -207 46 -233 -7 -11 -344 -17 -814 -13 l-89 1 6 53 c10
101 57 188 143 268 89 83 171 124 271 136 26 3 49 7 50 8 2 2 9 2 15 0 7 -2
39 -6 72 -9z"/>
<path d="M17449 13966 c-2 -2 -33 -7 -69 -10 -136 -14 -326 -74 -440 -138
-219 -124 -397 -354 -446 -578 -4 -19 -8 -37 -9 -40 -5 -18 -16 -124 -19 -170
-3 -52 7 -165 18 -219 33 -152 136 -323 268 -445 l78 -72 -66 -59 c-125 -110
-201 -240 -219 -377 -30 -222 16 -371 158 -510 l78 -77 -58 -37 c-32 -20 -67
-42 -78 -49 -38 -24 -133 -120 -165 -168 -29 -44 -65 -130 -76 -182 -9 -42 -6
-162 6 -220 31 -152 144 -296 283 -360 67 -31 248 -88 321 -101 16 -3 33 -7
36 -9 8 -5 36 -10 170 -30 82 -12 554 -13 625 -1 17 3 62 8 100 11 39 4 72 8
75 10 3 2 26 6 50 10 83 12 250 65 343 109 355 169 550 443 550 771 -1 165
-39 284 -128 398 -109 138 -314 238 -555 272 -19 3 -51 7 -70 11 -19 3 -186 7
-370 9 -443 6 -480 9 -557 46 -37 18 -50 32 -70 75 -41 89 -23 204 41 260 23
21 27 21 83 8 96 -24 113 -26 248 -29 367 -9 707 118 885 332 82 99 147 240
166 363 3 19 7 46 10 60 6 35 5 239 -1 273 -3 15 -16 62 -29 103 -28 87 -26
90 64 93 80 3 125 19 176 64 68 60 86 104 92 222 3 85 1 107 -16 147 -28 63
-83 121 -140 149 -46 22 -55 22 -417 24 -303 1 -380 4 -425 17 -30 9 -71 19
-90 22 -19 3 -46 9 -60 12 -28 6 -345 15 -351 10z m247 -576 c81 -27 157 -98
190 -177 44 -104 50 -276 15 -391 -47 -156 -158 -240 -316 -240 -208 0 -335
155 -335 408 0 225 104 381 275 413 37 7 132 -1 171 -13z m-351 -2305 c28 -4
183 -8 345 -10 309 -4 325 -6 393 -32 106 -41 142 -133 95 -244 -15 -33 -69
-85 -128 -120 -45 -27 -154 -67 -205 -74 -28 -4 -59 -9 -70 -12 -33 -6 -226
-5 -290 2 -124 14 -277 67 -329 113 -10 9 -30 37 -44 61 -51 88 -21 226 66
302 30 26 40 30 76 25 22 -3 64 -8 91 -11z"/>
<path d="M30038 13965 c-1 -1 -32 -6 -68 -9 -71 -8 -149 -26 -250 -58 -344
-110 -596 -392 -649 -728 -55 -341 59 -637 328 -853 l23 -18 -85 -82 c-122
-118 -180 -216 -202 -341 -12 -70 -12 -90 0 -194 14 -123 93 -250 214 -345 29
-23 21 -33 -65 -83 -150 -88 -268 -246 -289 -389 -7 -48 -7 -151 0 -185 18
-89 15 -80 56 -163 86 -172 320 -319 594 -373 39 -7 80 -16 92 -18 57 -12 225
-21 388 -21 219 0 335 9 471 36 28 5 64 12 80 15 136 24 365 109 494 184 56
33 171 124 227 178 154 152 235 358 227 577 -11 310 -188 517 -519 603 -95 25
-124 31 -190 38 -27 2 -61 7 -75 10 -14 3 -199 7 -413 9 -398 4 -474 11 -559
47 -86 37 -112 137 -60 239 30 60 62 82 99 68 94 -35 348 -47 513 -23 282 41
557 190 680 369 144 209 188 552 100 776 -18 46 -19 49 -2 57 9 5 54 10 99 11
97 1 154 22 208 77 59 59 78 112 78 224 0 112 -18 163 -79 224 -79 80 -79 80
-519 81 -214 1 -400 5 -412 9 -93 31 -213 47 -370 51 -88 2 -163 2 -165 0z
m247 -575 c153 -50 235 -198 229 -410 -4 -156 -40 -248 -125 -324 -117 -105
-320 -101 -433 9 -83 80 -118 190 -111 350 2 55 5 107 8 115 2 8 7 29 12 45
17 65 80 148 140 185 71 44 196 57 280 30z m-345 -2266 c19 -3 172 -6 340 -8
320 -5 387 -12 459 -49 104 -53 112 -194 17 -288 -59 -57 -205 -123 -303 -135
-21 -3 -54 -7 -73 -10 -49 -6 -269 -5 -305 1 -16 3 -43 7 -60 10 -28 5 -52 10
-92 19 -92 21 -193 88 -224 148 -47 91 -15 225 70 300 32 28 38 30 85 23 28
-4 67 -9 86 -11z"/>
<path d="M12326 13900 c-80 -31 -136 -94 -163 -185 -5 -17 -9 -508 -8 -1150
l0 -1120 23 -47 c30 -62 75 -105 139 -135 52 -24 58 -24 265 -21 244 3 261 8
336 93 74 84 70 4 68 1256 l-1 1124 -25 49 c-14 27 -44 66 -68 87 -69 60 -105
68 -325 68 -164 0 -199 -3 -241 -19z"/>
<path d="M24970 13911 c-77 -25 -134 -72 -172 -144 l-23 -42 0 -1145 0 -1145
23 -42 c32 -61 98 -120 154 -139 66 -22 449 -17 488 6 67 40 110 84 136 136
l27 56 1 1102 c1 780 -2 1116 -10 1153 -13 60 -33 95 -80 139 -69 64 -88 69
-314 71 -113 1 -216 -1 -230 -6z"/>
</g>
</svg>
